<svg xmlns="http://www.w3.org/2000/svg" xmlns:xlink="http://www.w3.org/1999/xlink" width="500" height="500" viewBox="0 0 500 500"><defs><linearGradient id="a" x1="-0.069" y1="-0.057" x2="1.023" y2="1" gradientUnits="objectBoundingBox"><stop offset="0" stop-color="#4946e6"/><stop offset="1" stop-color="#e00bbc"/></linearGradient></defs><g transform="translate(-960 -329)"><rect width="500" height="500" rx="106" transform="translate(960 329)" fill="url(#a)"/><path d="M985.019,547.971l-4.6,2.759H995.13l.458.9a21.181,21.181,0,0,0,1.384,2.292v4.6h3.218q22.991,28.977,32.195,40.014l75.39,100.277-68.065,4.6h59.32l-1.375,1.8h8.736l-4.143-1.465,6.444-.368,2.759.449,20.268,26.748h-82.778q-26.676,0-29.894-1.384l-29.013-41.874,21.571-5.977-24.267,1.375-65.791-94.732v41.847l-57.019,1.878,57.019,3.676V650.1H911.435l.9,1.932,3.676,2.885-19.773,5.3h25.31v54.269l-5.554-2.3-21.319,15.756,4.224-11.406L894.4,715.37l-4.584,12.421H830.5V387.934l12.88-4.6,1.384-10.579q7.8,0,8.736-9.653h68.047v94.246l-9.195,4.143-2.759,11.5-16.1.9L882,495.1l5.518.458,3.218,9.662,14.255-8.323,3.685,4.593-7.819,2.759,5.06,7.361-3.685,5.977,22.542,11.5,4.134-4.593-5.519-18.874,32.194-5.519-3.218-3.2,9.195-18.874L952.824,456c3.37-.611,5.393-1.384,6.211-2.3s.989-3.218.683-6.9l68.362-92.925-18.794,53.6,24.132-51.042,41.344,26.559,29.282,16.978-62.915-7.676,54.278,14.039L1027.028,496.1,984.1,505.5l33.74,3.415L994.69,542.453m-85.241-61.045,5.06-1.384,1.384-2.759v5.519l-.467-1.375-23.908,11.5-1.384-.458-1.375-10.12,1.375-.9,12.88,3.218,2.759-3.218v-5.519h3.218Zm18.875,11.037-5.519.458,2.759-4.134Zm4.6-5.977-3.218-3.685,6.4-9.195L943,476.347Z" transform="translate(247.5 36.776)" fill="#fff"/></g></svg>