<svg id="Layer_1" data-name="Layer 1" xmlns="http://www.w3.org/2000/svg" viewBox="0 0 1920 1080">
    <defs>
        <style>
            .cls-1 {
                fill: #fff;
            }
        </style>
    </defs>
    <path class="cls-1"
        d="M1002.42,569.83l-5.12,3.07h16.37l.51,1a23.57,23.57,0,0,0,1.54,2.55v5.12h3.58q25.58,32.24,35.82,44.52L1139,737.66l-75.73,5.12h66l-1.53,2h9.72l-4.61-1.63,7.17-.41,3.07.5L1165.64,773h-92.1q-29.68,0-33.26-1.54L1008,724.87l24-6.65L1005,719.75,931.8,614.35v46.56L868.36,663l63.44,4.09v16.37H920.55l1,2.15,4.09,3.21-22,5.9H931.8v60.38l-6.18-2.56L901.9,770.07l4.7-12.69-5-1.3L896.5,769.9h-66V391.77l14.33-5.12,1.54-11.77q8.68,0,9.72-10.74H931.8V469l-10.23,4.61-3.07,12.79-17.91,1L887.8,511l6.14.51,3.58,10.75L913.38,513l4.1,5.11-8.7,3.07,5.63,8.19-4.1,6.65,25.08,12.79,4.6-5.11-6.14-21,35.82-6.14L966.09,513l10.23-21L966.6,467.5c3.75-.68,6-1.54,6.91-2.56s1.1-3.58.76-7.68l76.06-103.39-20.91,59.64,26.85-56.79,46,29.55,32.58,18.89-70-8.54,60.39,15.62-76.08,99.88-47.76,10.46,37.54,3.8-25.76,37.31m-94.84-67.92,5.63-1.54,1.54-3.07v6.14l-.52-1.53-26.6,12.79-1.54-.51-1.53-11.26,1.53-1,14.33,3.58,3.07-3.58v-6.14h3.58Zm21,12.28-6.14.51,3.07-4.6Zm5.12-6.65-3.58-4.1L948,487.07l7.67,3.07Z" />
</svg>