<svg xmlns="http://www.w3.org/2000/svg" width="1279.854" height="212.049" viewBox="0 0 1279.854 212.049">
    <g transform="translate(-241.33 -410.15)">
        <path
            d="M328.324,519.419l-2.613,1.551H334l.261.523a11.64,11.64,0,0,0,.775,1.289V525.4h1.838Q349.815,541.7,355,547.915l42.452,56.442-38.331,2.613h33.4l-.775,1.037h4.913l-2.326-.871,3.624-.2,1.551.253,11.412,15.01H364.311q-15.019,0-16.822-.775L331.181,597.9l12.2-3.371-13.721.775-37.016-53.332v23.565l-32.1,1.037L292.6,568.57v8.285h-5.7l.514,1.089,2.073,1.629-11.133,2.979H292.6V613.1l-3.136-1.3-12,8.929,2.387-6.42-2.526-.662-2.613,6.969H241.33v-191.3l7.257-2.613.775-5.95c2.927,0,4.565-1.821,4.913-5.445h38.331v53.071l-5.183,2.326-1.551,6.473-9.06.514-6.473,11.917,3.1.253,1.812,5.436,8.032-4.661,2.065,2.613-4.4,1.551,2.849,4.138-2.082,3.415,12.693,6.473,2.326-2.614-3.11-10.611,18.129-3.11-1.812-1.812,5.149-10.619-4.922-12.431c1.9-.34,3.066-.775,3.485-1.289s.558-1.812.383-3.885l38.514-52.313-10.576,30.177,13.59-28.748,23.286,14.993,16.491,9.583L359.9,431.8l30.552,7.9-38.5,50.527-24.166,5.3,19,1.917-13.067,18.878m-47.992-34.367,2.849-.775.784-1.551v3.11l-.261-.784-13.425,6.473-.784-.253-.775-5.7.775-.523,7.248,1.821,1.559-1.821v-3.11h1.812Zm10.619,6.22-3.04.253,1.559-2.326Zm2.613-3.371-1.812-2.065,3.624-5.183,3.859,1.551Z"
            transform="translate(0)" fill="#e2e8f0c1" />
        <path
            d="M34.918-35.55l.474-.948-1.738-.474v.79H33.5v.632ZM6-98.75l-.948-.632-.474.316v.474h.632v.316ZM34.128-30.494h.632q2.212-2.054,3.318-2.054a1.072,1.072,0,0,1,.79.316l-3.792-3.634.632.948-.474.316-1.264,3.95Zm.79-4.108h.316v-.158Zm-3.476-3.634.158-.158v.158l1.422.316-.632-.948-.158-.158a.455.455,0,0,0,.158.316l-.79-.158.632-3-.316-.158a.14.14,0,0,1-.158-.158l-1.422,2.528Zm1.106,3.95a1.313,1.313,0,0,0,.474-1.264.879.879,0,0,0-.948-.79l.158.474L30.968-34.6ZM4.108-98.276v.948L5.214-97.8l-.632-.474v.632ZM96.38-126.4H66.044v61.778q0,18.486-1.264,23.384-2.528,9.954-12.8,11.85a23.542,23.542,0,0,1-11.376-.948l-3.318,1.58-.632-1.738-1.58,2.054H33.022l.316-5.214-.948-.632-2.528,2.844-3-1.58q3.16,0,3.16-2.054a5.978,5.978,0,0,0-.632-2.212,10.246,10.246,0,0,1-.632-1.58L31.6-43.134q-.79-5.056-.79-20.856v-58.618l-6.636-1.106a6.135,6.135,0,0,1,.474-2.686H.632v26.07l23.542,2.37L6-97.328.632-93.22v29.23q0,15.484.316,20.54.632,11.218,3.16,17.538Q10.744-8.848,31.126-2.686A60.136,60.136,0,0,0,48.664,0,61.324,61.324,0,0,0,73-5.372q-.948-1.422-2.686-3.792L66.36-10.9a5.116,5.116,0,0,1,3.95,1.738L74.1-7.584a9.721,9.721,0,0,0,4.74-1.738L84.53-12.8a35.04,35.04,0,0,0,9.322-13.746,29.611,29.611,0,0,0,1.738-9.8v-9.954a44.234,44.234,0,0,1,.632-7.268V-77.42H76.472l19.75-1.9ZM3.95-97.96Q3-97.96,3-99.382a4.409,4.409,0,0,0-3,1.106v4.266H.316q.79,0,2.212-1.58A4.509,4.509,0,0,0,3.95-97.96ZM184.544-54.984a38.35,38.35,0,0,0,15.484-12.561q5.846-8.137,5.688-20.619a37.864,37.864,0,0,0-5.135-18.881q-5.135-9.085-10.191-10.191H175.064l7.584-1.3v-1.141l1.738-.489.79-1.629-1.106-.652h-7.11l-4.9.316-4.582.158,8.848-.79v-.948l-1.738-.316.632-.632a.853.853,0,0,0-.6-.316l-.753.474-.6-.632-.753-.158-.452-.474h-2.55l-.321-.632h-1.913l-12.438.474v2.37a20.322,20.322,0,0,1-.474-2.37q-3.318-.158-43.45,0V-90.85l1.106.632-.316,1.738,2.054,1.422,1.738.316,2.37-.632v.79l7.194,1.422,19.666.632H123.791l-4.634.664-1.918.333-.16,1.5,3.95.664,1.264-1.58-.316,1.58h1.738l1.9-1.9-.948,2.054,6.162.632-5.372.356,2.528.592h-9.638L116.6-78.326l4.74.748-6.32-.158-1.738-1.9h-2.528l.474,1.773,1.58.321-1.9,1.128.79,1.286,8.216.644L115.656-74l2.212,2.738-3.476-2.528-3.16-.316V-.316L133.352,0l.316-.948,1.738.316.158-2.212.632-.316.316,1.58h1.422L138.724-3l1.422-.316,1.106-1.422,1.264-.316,1.264-.632h.948V-55.932L181.068,0l37.288-.158ZM132.4-119.448l-.632-2.686,1.422,2.054.948,2.686ZM117.236-43.292l-.474-2.212,1.106,2.37Zm3.16,6.636-.474.79-.79-1.422v-2.844l1.422,1.422Zm40.764-37.6H144.728V-94.484h16.116q10.428,0,11.218,10.27Q171.272-74.418,161.16-74.26Zm93.852,38.71.474-.948-1.738-.474v.79h-.158v.632ZM226.1-98.75l-.948-.632-.474.316v.474h.632v.316Zm28.124,68.256h.632q2.212-2.054,3.318-2.054a1.072,1.072,0,0,1,.79.316l-3.792-3.634.632.948-.474.316-1.264,3.95Zm.79-4.108h.316v-.158Zm-3.476-3.634.158-.158v.158l1.422.316-.632-.948-.158-.158a.455.455,0,0,0,.158.316l-.79-.158.632-3-.316-.158a.14.14,0,0,1-.158-.158l-1.422,2.528Zm1.106,3.95a1.313,1.313,0,0,0,.474-1.264.879.879,0,0,0-.948-.79l.158.474L251.062-34.6ZM224.2-98.276v.948l1.106-.474-.632-.474v.632ZM316.474-126.4H286.138v61.778q0,18.486-1.264,23.384-2.528,9.954-12.8,11.85a23.542,23.542,0,0,1-11.376-.948l-3.318,1.58-.632-1.738-1.58,2.054h-2.054l.316-5.214-.948-.632-2.528,2.844-3-1.58q3.16,0,3.16-2.054a5.978,5.978,0,0,0-.632-2.212,10.245,10.245,0,0,1-.632-1.58l2.844-4.266q-.79-5.056-.79-20.856v-58.618l-6.636-1.106a6.135,6.135,0,0,1,.474-2.686H220.726v26.07l23.542,2.37-18.17.632-5.372,4.108v29.23q0,15.484.316,20.54.632,11.218,3.16,17.538Q230.838-8.848,251.22-2.686A60.136,60.136,0,0,0,268.758,0,61.324,61.324,0,0,0,293.09-5.372q-.948-1.422-2.686-3.792l-3.95-1.738a5.116,5.116,0,0,1,3.95,1.738l3.792,1.58a9.721,9.721,0,0,0,4.74-1.738l5.688-3.476a35.04,35.04,0,0,0,9.322-13.746,29.611,29.611,0,0,0,1.738-9.8v-9.954a44.235,44.235,0,0,1,.632-7.268V-77.42h-19.75l19.75-1.9Zm-92.43,28.44q-.948,0-.948-1.422a4.409,4.409,0,0,0-3,1.106v4.266h.316q.79,0,2.212-1.58A4.509,4.509,0,0,0,224.044-97.96ZM433.71-126.4l-.158.632.474-.632ZM428.654-9.324l-.948-.156-2.212.126,1.422.506h-3l.474-.632H404.006l23.384-1.58L401.478-45.5q-3.16-3.792-11.06-13.746h-1.106v-1.58a7.727,7.727,0,0,1-.474-.79l-.158-.316h-5.056l1.58-.948H342.07l46.452-1.9,8.532-11.534h-6.162l7.268-1.58,24.964-33.654-2.686-.474,3.318-.316,9.48-12.8L427.39-126.4H396.264l-19.75,28.756a3.868,3.868,0,0,1-.237,2.37,4,4,0,0,1-2.133.79l3,7.584-3.16,6.478,1.106,1.106-11.06,1.9,1.9,6.478-1.422,1.58-7.742-3.95,1.264-2.054-1.738-2.528,2.686-.948-1.264-1.58-4.9,2.844L351.708-80.9l-1.9-.158,3.95-7.268,5.53-.316.948-3.95,3.16-1.422V-126.4H340.016q-.316,3.318-3,3.318l-.474,3.634-4.424,1.58V-1.106H352.5l1.58-4.266,1.538.4-1.452,3.92,7.325-5.426,1.911.79V-24.332h-8.69l6.794-1.822-1.264-.992-.316-.662H363.4v-5.056l-19.592-1.264L363.4-34.76V-49.138L385.994-16.59l8.374-.474-7.426,2.054L396.9-.632q1.106.474,10.27.474h28.44ZM372.722-87.848l-2.37-.948-2.212,3.16,1.106,1.264Zm-11.692-.158h-1.106v1.9L358.976-85l-4.424-1.106-.474.316.474,3.476.474.158,8.216-3.95.158.474v-1.9l-.474.948-1.738.474Zm5.688,4.424-.948,1.422,1.9-.158Zm85,45.5,2.37,1.422.158-1.106,2.054.632v-1.264l-.316-.474-.158-.474-1.58,1.264.316-3-2.844-.316Zm3,5.53a4.29,4.29,0,0,0-.632-1.422,4,4,0,0,1-.632-1.9l-1.9-.474.158.79-.158,3Zm5.372-82.318q-.948.79-2.054,1.9l2.844-.79Zm4.424.948-.158-1.58-2.212.158v1.422Zm-12.8,69.994h1.9l-1.9-1.9ZM532.46-54.036l-.79-.158q-1.264,0-1.264-.158l.316-.632a2.805,2.805,0,0,0,.316-1.264H492.012q6.636,0,19.829-.4t19.829-.4q-7.268-11.218-27.018-17.38-5.53-1.264-16.353-4.266t-9.4-9.954q1.9-9.638,17.064-9.638a33.809,33.809,0,0,1,6.32.632q9.954,1.9,14.536,4.424,3,1.58,7.663,6.636a49.88,49.88,0,0,0,7.189,6.794v-21.962H519.5v-2.528H531.67v-7.1l-5.372-.165h5.372v-1.422h-2.212l1.106-1.738q-5.53-5.688-17.854-9.006a80.959,80.959,0,0,0-20.224-2.686,49.86,49.86,0,0,0-23.7,5.688,19.783,19.783,0,0,1,6,.948l-6.636.158q-1.9,1.264-5.688,3.476h7.268l-4.424.632-.316,1.422,2.212.632-9.164,1.422a13.923,13.923,0,0,1-2.844,2.054A34.109,34.109,0,0,0,447.14-87.69q0,17.7,13.272,27.176,7.426,5.372,22.278,9.638l15.326,4.424q9.322,4.108,8.216,10.586-1.9,10.112-16.748,10.112-13.746,0-28.44-11.218l-3.476-1.106,5.372,9.8-6.952-5.372,1.58,3.95-5.846-1.422v17.763Q474.158,2.37,497.7-.632l-.158-.316a23.17,23.17,0,0,1,2.528.158,42.686,42.686,0,0,0,6.794-1.738,7.281,7.281,0,0,0,.474-2.844l-1.9-1.422,8.69,1.422a42.9,42.9,0,0,0,15.642-12.8,31.049,31.049,0,0,0,6.478-18.96A39.239,39.239,0,0,0,532.46-54.036ZM455.988-35.708v-.474l-.948-.474v.158l-.158,1.58h.79l.316.79h1.422l.948,1.58-.79-3.634h-.79l-.316.158.316,1.106-.632-.79.316-.316v-.158Zm194.34-81.054-14.536,3.318L650.17-118.5l-1.264-6-11.218-1.58-.316-.316H619.518v46.452H581.282V-119.29l-.622-1.106-.469-.158-.933,0,.348,2.365-1.3,3.012h-.975l-.79-5.372h-3l-1.422,3.16.316-3.16-5.846,1.9,5.372-3,.158-2.212,3.792-.632v-1.58q-4.108-.316-6.32-.316H550.472V0H571.8l3.792-1.264L575.91-3l4.74-1.422-1.738-3.318,2.37-1.106V-43.924l-1.116-.474-.321-3-.158-.79-15-.79,13.43-.316v-.948l-2.212-.79H578.6l-3.476-4.424,5.214,4.424,2.844-1.264,1.9,2.844H587.6l-.632.316h32.548V0h30.81V-45.662l-.948-5.846h-3.318L644.64-57.2h-3.792v-.316l3.476-3.792h4.266l.316-2.212-4.266-.474.158-1.9-48.822,6.162L650.328-68.1Zm48.348,19.908h51.666a6.221,6.221,0,0,1,1.264-.632l.158-2.054-1.106-.632-.158-2.054-2.054-.948L750.5-104.6l1.106-.948-.158-6.478h-.79l-.158-.948-1.422-.158-.632-1.106H700.414l50.086-2.212.158-3.792h-.948v-1.9l-2.054-1.58h-3.95V-126.4H666.128L667.076-.948,669.762,0H750.5V-2.37L724.9-3.95l25.754-1.738V-8.216L748.92-9.48l1.58-2.37V-27.966H695.99a109.766,109.766,0,0,0,0-11.85l-.316-6.162L693.3-47.4H674.028L695.2-49.138h25.438l12.64-1.106L736.6-51.35l1.264-1.58L740.7-53.4l.79-.632,6.952-1.106-.474-1.106.632-1.9-2.37-.632L745.76-60.2l4.74-3V-76.946H689.828l6.162-2.212V-94.484l-.158-2.212-.79-.632,1.58-.158Zm165.268-29.072q-15.958,0-47.716-.316l-47.874-.158a4.226,4.226,0,0,0,.316,1.58l.316.79q0,.316-3.792.316l-1.422-.632v28.6h31.284l1.58-1.9h5.372l-2.37,2.37,1.106,2.054-2.212.632V-11.85l4.582,3.95-3.16-1.9L798.69-7.9h-.158V0h30.81V-32.706l-22.91-1.264,22.91.79V-76l-7.9.474,1.106.316.316.632-9.164-.948,15.642-2.37V-95.748h34.444V-99.7l-4.424-.316,4.424-1.264Q863.786-109.494,863.944-125.926Zm88.48,70.942a38.35,38.35,0,0,0,15.484-12.561q5.846-8.137,5.688-20.619a37.864,37.864,0,0,0-5.135-18.881q-5.135-9.085-10.191-10.191H942.944l7.584-1.3v-1.141l1.738-.489.79-1.629-1.106-.652h-7.11l-4.9.316-4.582.158,8.848-.79v-.948l-1.738-.316.632-.632a.853.853,0,0,0-.6-.316l-.753.474-.6-.632-.753-.158-.452-.474h-2.55l-.321-.632h-1.913l-12.438.474v2.37a20.333,20.333,0,0,1-.474-2.37q-3.318-.158-43.45,0V-90.85l1.106.632-.316,1.738,2.054,1.422,1.738.316,2.37-.632v.79l7.194,1.422,19.666.632H891.671l-4.634.664-1.918.333-.16,1.5,3.95.664,1.264-1.58-.316,1.58h1.738l1.9-1.9-.948,2.054,6.162.632-5.372.356,2.528.592h-9.638l-1.738,1.306,4.74.748-6.32-.158-1.738-1.9h-2.528l.474,1.773,1.58.321-1.9,1.128.79,1.286,8.216.644L883.536-74l2.212,2.738-3.476-2.528-3.16-.316V-.316L901.232,0l.316-.948,1.738.316.158-2.212.632-.316.316,1.58h1.422L906.6-3l1.422-.316,1.106-1.422,1.264-.316,1.264-.632h.948V-55.932L948.948,0l37.288-.158Zm-52.14-64.464-.632-2.686,1.422,2.054.948,2.686ZM885.116-43.292l-.474-2.212,1.106,2.37Zm3.16,6.636-.474.79-.79-1.422v-2.844l1.422,1.422Zm40.764-37.6H912.608V-94.484h16.116q10.428,0,11.218,10.27Q939.152-74.418,929.04-74.26ZM1085.934-96.7V-97.8l-.79-.474-1.422.632-.158,1.422.948.632.632-.79Zm-9.48,5.846.948-.632.948.316.632-.79v-1.9l-.948.632-1.106.316v.632l-.632.632Zm-2.054-3.634-.316,1.58,1.422.316.316-.632-.316-1.264Zm-2.212,3.476.948-.474.632-.948-1.106-.158Zm6-4.9a1.7,1.7,0,0,0-.948-.316,2.425,2.425,0,0,0-.948.316l.158.948.948-.474Zm3.318,25.438,2.212.316.79-.79.316-.948h3l.79-.474.158-.948,2.212-.158,1.106-.474.79-1.106,2.212-.316.948-.948V-79.79l-2.212.158v-1.106l-3,.158-1.738,1.738v1.422l-1.264-.474v.948l-2.528-.474-.316,1.9h-1.738l-.474.948h-.632l-.316,1.264-1.264.474.316,1.738Zm28.756,15.01v-1.264l-.474-1.106v-14.22l-1.9-1.9-9.8.474-1.738,1.422-.948,1.422-.79.948-.948.948.316,3.476-1.264-3.634-.948-1.738-1.738-.474-1.738.158-.948.79-2.686,1.264v1.422l-1.58,1.264-1.58.158-2.212,2.212.474,2.37.158,5.53-1.9.632.158-1.422,1.106-.79v-3.476l-1.106-1.738-1.264.316-.948,3.95-.316-2.686-2.528.316-.948.948-2.37.158-.316,1.58-2.37.474-.316,1.264-1.9.474.158,4.582-.79-3.318-1.264-.474-.158,1.106h-2.054l-.632.632-.316,1.264-.948.632-1.422-.316-2.212-.632,2.528-.474,1.58-.632,1.264-1.422,1.264-.79.632-.948.948-1.58.316-1.58.474,1.264h1.264l.79-.948,1.264-.316.79-1.106-.474-1.58-.948-1.106-.632-1.9.158-.948-.79-.316-.948-1.264-.948-2.686h-1.264l-.158-1.106.948-.632.948-.79-.474-1.264,1.738-.632.474-2.054-.316-6.162-1.738-1.264.948-.632.316-1.106-.948-.632.316-1.9.948.158.632-2.37.158,1.264,2.528-.316-.158-1.9.79.158v-1.738l.948-.316v1.58l.948.316.632-2.686.158,1.422,1.106-.474.632-1.106-.158-.948.79-.79,1.106.79.158-1.106,1.422-.158.474-.632v-.79l-1.738-.632.316-1.422h1.264v1.106l1.106-.158,1.264-.158-.474.79-.316,1.422,1.738-.316.158-.948,1.106-.632,1.58.316.632-1.106-.79-1.58,2.212.158.632,3.476,1.58-.316-.158,1.422,1.264,1.422h1.422l-.948-2.054.948.79,2.844,1.9,2.686.474,3.16,1.9h2.37l.474.632h1.422l.158-.632,4.424-.316,1.264-.79v-32.232h-32.074l.474,3.634-1.58-3.95h-15.484l-16.432,30.336.316,2.212,1.9-.158-2.212,1.106-2.054.474v2.212l-1.422.79-7.268,13.9,3,.316L1034.742-73l-.316,1.264.79.632,2.212-2.212,1.106,1.9-1.58-.632-1.106,1.264-.79.79.158,1.9-3.16,1.422,2.212-1.9-1.58-.158-.474-3h-1.422l-6,12.008,3-2.212-4.424,4.582-1.9,2.686-.316,3.792h-1.422l-.316,1.106-1.9,2.686-.316,1.58-4.424,7.9-.316,1.738-1.106.79L1004.09-21.8l1.9,4.108-2.37-3.476L993.03-1.422l-.158,1.264,1.106-.158.474-1.106.474,1.106h5.214l.948-.632.632-.948.474-1.264.158.79.79.316-.158.632L1003.142,0h1.264l.79-.474V-1.58l-.948-.948.948-.632.316-.79h1.422L1008.04-3l.474.948.632.632-.316,1.264h24.016l7.11-15.01v-1.58h-1.9l-.158-1.9.474,1.106,2.054-.158,1.106-1.264,1.422-1.9v-1.738l-.79-.632-2.844-.158,2.054-.316-.79-.316-.158-1.264h.948l.948,1.422,1.9-.474.79-.948v-1.106l-36.34-.632,36.656-.316.948-.474,1.106-2.686h28.44l-.316,4.108.632.948-.316.79L1075.98,0l34.128-.158-.158-32.864-.474-.158-.158-14.062.79-.632V-48.98l-.79-.948v-5.056Zm-79.632-4.424-.316-1.264,2.844-2.054.316.632Zm18.17,10.428h-1.9l-.474-1.738,2.054.474.158-1.106,2.844.158Zm27.966,4.266h-1.264l.79-2.528,1.422-1.106Zm19.908,16.116-.632-.79.632-1.106.948,1.106ZM1082.3-98.118h-1.106l-.316.948.948.316Zm-1.738,6.162,1.264-1.264,1.422-.474.316-1.264-1.738.158-.316-.79-.316-.632-.79.474.158,1.422.158.948-.79.79Z"
            transform="translate(410.918 621.924)" fill="#e2e8f0c1" />
        <path
            d="M34.918-35.55l.474-.948-1.738-.474v.79H33.5v.632ZM6-98.75l-.948-.632-.474.316v.474h.632v.316ZM34.128-30.494h.632q2.212-2.054,3.318-2.054a1.072,1.072,0,0,1,.79.316l-3.792-3.634.632.948-.474.316-1.264,3.95Zm.79-4.108h.316v-.158Zm-3.476-3.634.158-.158v.158l1.422.316-.632-.948-.158-.158a.455.455,0,0,0,.158.316l-.79-.158.632-3-.316-.158a.14.14,0,0,1-.158-.158l-1.422,2.528Zm1.106,3.95a1.313,1.313,0,0,0,.474-1.264.879.879,0,0,0-.948-.79l.158.474L30.968-34.6ZM4.108-98.276v.948L5.214-97.8l-.632-.474v.632ZM96.38-126.4H66.044v61.778q0,18.486-1.264,23.384-2.528,9.954-12.8,11.85a23.542,23.542,0,0,1-11.376-.948l-3.318,1.58-.632-1.738-1.58,2.054H33.022l.316-5.214-.948-.632-2.528,2.844-3-1.58q3.16,0,3.16-2.054a5.978,5.978,0,0,0-.632-2.212,10.246,10.246,0,0,1-.632-1.58L31.6-43.134q-.79-5.056-.79-20.856v-58.618l-6.636-1.106a6.135,6.135,0,0,1,.474-2.686H.632v26.07l23.542,2.37L6-97.328.632-93.22v29.23q0,15.484.316,20.54.632,11.218,3.16,17.538Q10.744-8.848,31.126-2.686A60.136,60.136,0,0,0,48.664,0,61.324,61.324,0,0,0,73-5.372q-.948-1.422-2.686-3.792L66.36-10.9a5.116,5.116,0,0,1,3.95,1.738L74.1-7.584a9.721,9.721,0,0,0,4.74-1.738L84.53-12.8a35.04,35.04,0,0,0,9.322-13.746,29.611,29.611,0,0,0,1.738-9.8v-9.954a44.234,44.234,0,0,1,.632-7.268V-77.42H76.472l19.75-1.9ZM3.95-97.96Q3-97.96,3-99.382a4.409,4.409,0,0,0-3,1.106v4.266H.316q.79,0,2.212-1.58A4.509,4.509,0,0,0,3.95-97.96ZM184.544-54.984a38.35,38.35,0,0,0,15.484-12.561q5.846-8.137,5.688-20.619a37.864,37.864,0,0,0-5.135-18.881q-5.135-9.085-10.191-10.191H175.064l7.584-1.3v-1.141l1.738-.489.79-1.629-1.106-.652h-7.11l-4.9.316-4.582.158,8.848-.79v-.948l-1.738-.316.632-.632a.853.853,0,0,0-.6-.316l-.753.474-.6-.632-.753-.158-.452-.474h-2.55l-.321-.632h-1.913l-12.438.474v2.37a20.322,20.322,0,0,1-.474-2.37q-3.318-.158-43.45,0V-90.85l1.106.632-.316,1.738,2.054,1.422,1.738.316,2.37-.632v.79l7.194,1.422,19.666.632H123.791l-4.634.664-1.918.333-.16,1.5,3.95.664,1.264-1.58-.316,1.58h1.738l1.9-1.9-.948,2.054,6.162.632-5.372.356,2.528.592h-9.638L116.6-78.326l4.74.748-6.32-.158-1.738-1.9h-2.528l.474,1.773,1.58.321-1.9,1.128.79,1.286,8.216.644L115.656-74l2.212,2.738-3.476-2.528-3.16-.316V-.316L133.352,0l.316-.948,1.738.316.158-2.212.632-.316.316,1.58h1.422L138.724-3l1.422-.316,1.106-1.422,1.264-.316,1.264-.632h.948V-55.932L181.068,0l37.288-.158ZM132.4-119.448l-.632-2.686,1.422,2.054.948,2.686ZM117.236-43.292l-.474-2.212,1.106,2.37Zm3.16,6.636-.474.79-.79-1.422v-2.844l1.422,1.422Zm40.764-37.6H144.728V-94.484h16.116q10.428,0,11.218,10.27Q171.272-74.418,161.16-74.26Zm93.852,38.71.474-.948-1.738-.474v.79h-.158v.632ZM226.1-98.75l-.948-.632-.474.316v.474h.632v.316Zm28.124,68.256h.632q2.212-2.054,3.318-2.054a1.072,1.072,0,0,1,.79.316l-3.792-3.634.632.948-.474.316-1.264,3.95Zm.79-4.108h.316v-.158Zm-3.476-3.634.158-.158v.158l1.422.316-.632-.948-.158-.158a.455.455,0,0,0,.158.316l-.79-.158.632-3-.316-.158a.14.14,0,0,1-.158-.158l-1.422,2.528Zm1.106,3.95a1.313,1.313,0,0,0,.474-1.264.879.879,0,0,0-.948-.79l.158.474L251.062-34.6ZM224.2-98.276v.948l1.106-.474-.632-.474v.632ZM316.474-126.4H286.138v61.778q0,18.486-1.264,23.384-2.528,9.954-12.8,11.85a23.542,23.542,0,0,1-11.376-.948l-3.318,1.58-.632-1.738-1.58,2.054h-2.054l.316-5.214-.948-.632-2.528,2.844-3-1.58q3.16,0,3.16-2.054a5.978,5.978,0,0,0-.632-2.212,10.245,10.245,0,0,1-.632-1.58l2.844-4.266q-.79-5.056-.79-20.856v-58.618l-6.636-1.106a6.135,6.135,0,0,1,.474-2.686H220.726v26.07l23.542,2.37-18.17.632-5.372,4.108v29.23q0,15.484.316,20.54.632,11.218,3.16,17.538Q230.838-8.848,251.22-2.686A60.136,60.136,0,0,0,268.758,0,61.324,61.324,0,0,0,293.09-5.372q-.948-1.422-2.686-3.792l-3.95-1.738a5.116,5.116,0,0,1,3.95,1.738l3.792,1.58a9.721,9.721,0,0,0,4.74-1.738l5.688-3.476a35.04,35.04,0,0,0,9.322-13.746,29.611,29.611,0,0,0,1.738-9.8v-9.954a44.235,44.235,0,0,1,.632-7.268V-77.42h-19.75l19.75-1.9Zm-92.43,28.44q-.948,0-.948-1.422a4.409,4.409,0,0,0-3,1.106v4.266h.316q.79,0,2.212-1.58A4.509,4.509,0,0,0,224.044-97.96ZM433.71-126.4l-.158.632.474-.632ZM428.654-9.324l-.948-.156-2.212.126,1.422.506h-3l.474-.632H404.006l23.384-1.58L401.478-45.5q-3.16-3.792-11.06-13.746h-1.106v-1.58a7.727,7.727,0,0,1-.474-.79l-.158-.316h-5.056l1.58-.948H342.07l46.452-1.9,8.532-11.534h-6.162l7.268-1.58,24.964-33.654-2.686-.474,3.318-.316,9.48-12.8L427.39-126.4H396.264l-19.75,28.756a3.868,3.868,0,0,1-.237,2.37,4,4,0,0,1-2.133.79l3,7.584-3.16,6.478,1.106,1.106-11.06,1.9,1.9,6.478-1.422,1.58-7.742-3.95,1.264-2.054-1.738-2.528,2.686-.948-1.264-1.58-4.9,2.844L351.708-80.9l-1.9-.158,3.95-7.268,5.53-.316.948-3.95,3.16-1.422V-126.4H340.016q-.316,3.318-3,3.318l-.474,3.634-4.424,1.58V-1.106H352.5l1.58-4.266,1.538.4-1.452,3.92,7.325-5.426,1.911.79V-24.332h-8.69l6.794-1.822-1.264-.992-.316-.662H363.4v-5.056l-19.592-1.264L363.4-34.76V-49.138L385.994-16.59l8.374-.474-7.426,2.054L396.9-.632q1.106.474,10.27.474h28.44ZM372.722-87.848l-2.37-.948-2.212,3.16,1.106,1.264Zm-11.692-.158h-1.106v1.9L358.976-85l-4.424-1.106-.474.316.474,3.476.474.158,8.216-3.95.158.474v-1.9l-.474.948-1.738.474Zm5.688,4.424-.948,1.422,1.9-.158Zm85,45.5,2.37,1.422.158-1.106,2.054.632v-1.264l-.316-.474-.158-.474-1.58,1.264.316-3-2.844-.316Zm3,5.53a4.29,4.29,0,0,0-.632-1.422,4,4,0,0,1-.632-1.9l-1.9-.474.158.79-.158,3Zm5.372-82.318q-.948.79-2.054,1.9l2.844-.79Zm4.424.948-.158-1.58-2.212.158v1.422Zm-12.8,69.994h1.9l-1.9-1.9ZM532.46-54.036l-.79-.158q-1.264,0-1.264-.158l.316-.632a2.805,2.805,0,0,0,.316-1.264H492.012q6.636,0,19.829-.4t19.829-.4q-7.268-11.218-27.018-17.38-5.53-1.264-16.353-4.266t-9.4-9.954q1.9-9.638,17.064-9.638a33.809,33.809,0,0,1,6.32.632q9.954,1.9,14.536,4.424,3,1.58,7.663,6.636a49.88,49.88,0,0,0,7.189,6.794v-21.962H519.5v-2.528H531.67v-7.1l-5.372-.165h5.372v-1.422h-2.212l1.106-1.738q-5.53-5.688-17.854-9.006a80.959,80.959,0,0,0-20.224-2.686,49.86,49.86,0,0,0-23.7,5.688,19.783,19.783,0,0,1,6,.948l-6.636.158q-1.9,1.264-5.688,3.476h7.268l-4.424.632-.316,1.422,2.212.632-9.164,1.422a13.923,13.923,0,0,1-2.844,2.054A34.109,34.109,0,0,0,447.14-87.69q0,17.7,13.272,27.176,7.426,5.372,22.278,9.638l15.326,4.424q9.322,4.108,8.216,10.586-1.9,10.112-16.748,10.112-13.746,0-28.44-11.218l-3.476-1.106,5.372,9.8-6.952-5.372,1.58,3.95-5.846-1.422v17.763Q474.158,2.37,497.7-.632l-.158-.316a23.17,23.17,0,0,1,2.528.158,42.686,42.686,0,0,0,6.794-1.738,7.281,7.281,0,0,0,.474-2.844l-1.9-1.422,8.69,1.422a42.9,42.9,0,0,0,15.642-12.8,31.049,31.049,0,0,0,6.478-18.96A39.239,39.239,0,0,0,532.46-54.036ZM455.988-35.708v-.474l-.948-.474v.158l-.158,1.58h.79l.316.79h1.422l.948,1.58-.79-3.634h-.79l-.316.158.316,1.106-.632-.79.316-.316v-.158Zm194.34-81.054-14.536,3.318L650.17-118.5l-1.264-6-11.218-1.58-.316-.316H619.518v46.452H581.282V-119.29l-.622-1.106-.469-.158-.933,0,.348,2.365-1.3,3.012h-.975l-.79-5.372h-3l-1.422,3.16.316-3.16-5.846,1.9,5.372-3,.158-2.212,3.792-.632v-1.58q-4.108-.316-6.32-.316H550.472V0H571.8l3.792-1.264L575.91-3l4.74-1.422-1.738-3.318,2.37-1.106V-43.924l-1.116-.474-.321-3-.158-.79-15-.79,13.43-.316v-.948l-2.212-.79H578.6l-3.476-4.424,5.214,4.424,2.844-1.264,1.9,2.844H587.6l-.632.316h32.548V0h30.81V-45.662l-.948-5.846h-3.318L644.64-57.2h-3.792v-.316l3.476-3.792h4.266l.316-2.212-4.266-.474.158-1.9-48.822,6.162L650.328-68.1Zm48.348,19.908h51.666a6.221,6.221,0,0,1,1.264-.632l.158-2.054-1.106-.632-.158-2.054-2.054-.948L750.5-104.6l1.106-.948-.158-6.478h-.79l-.158-.948-1.422-.158-.632-1.106H700.414l50.086-2.212.158-3.792h-.948v-1.9l-2.054-1.58h-3.95V-126.4H666.128L667.076-.948,669.762,0H750.5V-2.37L724.9-3.95l25.754-1.738V-8.216L748.92-9.48l1.58-2.37V-27.966H695.99a109.766,109.766,0,0,0,0-11.85l-.316-6.162L693.3-47.4H674.028L695.2-49.138h25.438l12.64-1.106L736.6-51.35l1.264-1.58L740.7-53.4l.79-.632,6.952-1.106-.474-1.106.632-1.9-2.37-.632L745.76-60.2l4.74-3V-76.946H689.828l6.162-2.212V-94.484l-.158-2.212-.79-.632,1.58-.158Zm165.268-29.072q-15.958,0-47.716-.316l-47.874-.158a4.226,4.226,0,0,0,.316,1.58l.316.79q0,.316-3.792.316l-1.422-.632v28.6h31.284l1.58-1.9h5.372l-2.37,2.37,1.106,2.054-2.212.632V-11.85l4.582,3.95-3.16-1.9L798.69-7.9h-.158V0h30.81V-32.706l-22.91-1.264,22.91.79V-76l-7.9.474,1.106.316.316.632-9.164-.948,15.642-2.37V-95.748h34.444V-99.7l-4.424-.316,4.424-1.264Q863.786-109.494,863.944-125.926Zm88.48,70.942a38.35,38.35,0,0,0,15.484-12.561q5.846-8.137,5.688-20.619a37.864,37.864,0,0,0-5.135-18.881q-5.135-9.085-10.191-10.191H942.944l7.584-1.3v-1.141l1.738-.489.79-1.629-1.106-.652h-7.11l-4.9.316-4.582.158,8.848-.79v-.948l-1.738-.316.632-.632a.853.853,0,0,0-.6-.316l-.753.474-.6-.632-.753-.158-.452-.474h-2.55l-.321-.632h-1.913l-12.438.474v2.37a20.333,20.333,0,0,1-.474-2.37q-3.318-.158-43.45,0V-90.85l1.106.632-.316,1.738,2.054,1.422,1.738.316,2.37-.632v.79l7.194,1.422,19.666.632H891.671l-4.634.664-1.918.333-.16,1.5,3.95.664,1.264-1.58-.316,1.58h1.738l1.9-1.9-.948,2.054,6.162.632-5.372.356,2.528.592h-9.638l-1.738,1.306,4.74.748-6.32-.158-1.738-1.9h-2.528l.474,1.773,1.58.321-1.9,1.128.79,1.286,8.216.644L883.536-74l2.212,2.738-3.476-2.528-3.16-.316V-.316L901.232,0l.316-.948,1.738.316.158-2.212.632-.316.316,1.58h1.422L906.6-3l1.422-.316,1.106-1.422,1.264-.316,1.264-.632h.948V-55.932L948.948,0l37.288-.158Zm-52.14-64.464-.632-2.686,1.422,2.054.948,2.686ZM885.116-43.292l-.474-2.212,1.106,2.37Zm3.16,6.636-.474.79-.79-1.422v-2.844l1.422,1.422Zm40.764-37.6H912.608V-94.484h16.116q10.428,0,11.218,10.27Q939.152-74.418,929.04-74.26ZM1085.934-96.7V-97.8l-.79-.474-1.422.632-.158,1.422.948.632.632-.79Zm-9.48,5.846.948-.632.948.316.632-.79v-1.9l-.948.632-1.106.316v.632l-.632.632Zm-2.054-3.634-.316,1.58,1.422.316.316-.632-.316-1.264Zm-2.212,3.476.948-.474.632-.948-1.106-.158Zm6-4.9a1.7,1.7,0,0,0-.948-.316,2.425,2.425,0,0,0-.948.316l.158.948.948-.474Zm3.318,25.438,2.212.316.79-.79.316-.948h3l.79-.474.158-.948,2.212-.158,1.106-.474.79-1.106,2.212-.316.948-.948V-79.79l-2.212.158v-1.106l-3,.158-1.738,1.738v1.422l-1.264-.474v.948l-2.528-.474-.316,1.9h-1.738l-.474.948h-.632l-.316,1.264-1.264.474.316,1.738Zm28.756,15.01v-1.264l-.474-1.106v-14.22l-1.9-1.9-9.8.474-1.738,1.422-.948,1.422-.79.948-.948.948.316,3.476-1.264-3.634-.948-1.738-1.738-.474-1.738.158-.948.79-2.686,1.264v1.422l-1.58,1.264-1.58.158-2.212,2.212.474,2.37.158,5.53-1.9.632.158-1.422,1.106-.79v-3.476l-1.106-1.738-1.264.316-.948,3.95-.316-2.686-2.528.316-.948.948-2.37.158-.316,1.58-2.37.474-.316,1.264-1.9.474.158,4.582-.79-3.318-1.264-.474-.158,1.106h-2.054l-.632.632-.316,1.264-.948.632-1.422-.316-2.212-.632,2.528-.474,1.58-.632,1.264-1.422,1.264-.79.632-.948.948-1.58.316-1.58.474,1.264h1.264l.79-.948,1.264-.316.79-1.106-.474-1.58-.948-1.106-.632-1.9.158-.948-.79-.316-.948-1.264-.948-2.686h-1.264l-.158-1.106.948-.632.948-.79-.474-1.264,1.738-.632.474-2.054-.316-6.162-1.738-1.264.948-.632.316-1.106-.948-.632.316-1.9.948.158.632-2.37.158,1.264,2.528-.316-.158-1.9.79.158v-1.738l.948-.316v1.58l.948.316.632-2.686.158,1.422,1.106-.474.632-1.106-.158-.948.79-.79,1.106.79.158-1.106,1.422-.158.474-.632v-.79l-1.738-.632.316-1.422h1.264v1.106l1.106-.158,1.264-.158-.474.79-.316,1.422,1.738-.316.158-.948,1.106-.632,1.58.316.632-1.106-.79-1.58,2.212.158.632,3.476,1.58-.316-.158,1.422,1.264,1.422h1.422l-.948-2.054.948.79,2.844,1.9,2.686.474,3.16,1.9h2.37l.474.632h1.422l.158-.632,4.424-.316,1.264-.79v-32.232h-32.074l.474,3.634-1.58-3.95h-15.484l-16.432,30.336.316,2.212,1.9-.158-2.212,1.106-2.054.474v2.212l-1.422.79-7.268,13.9,3,.316L1034.742-73l-.316,1.264.79.632,2.212-2.212,1.106,1.9-1.58-.632-1.106,1.264-.79.79.158,1.9-3.16,1.422,2.212-1.9-1.58-.158-.474-3h-1.422l-6,12.008,3-2.212-4.424,4.582-1.9,2.686-.316,3.792h-1.422l-.316,1.106-1.9,2.686-.316,1.58-4.424,7.9-.316,1.738-1.106.79L1004.09-21.8l1.9,4.108-2.37-3.476L993.03-1.422l-.158,1.264,1.106-.158.474-1.106.474,1.106h5.214l.948-.632.632-.948.474-1.264.158.79.79.316-.158.632L1003.142,0h1.264l.79-.474V-1.58l-.948-.948.948-.632.316-.79h1.422L1008.04-3l.474.948.632.632-.316,1.264h24.016l7.11-15.01v-1.58h-1.9l-.158-1.9.474,1.106,2.054-.158,1.106-1.264,1.422-1.9v-1.738l-.79-.632-2.844-.158,2.054-.316-.79-.316-.158-1.264h.948l.948,1.422,1.9-.474.79-.948v-1.106l-36.34-.632,36.656-.316.948-.474,1.106-2.686h28.44l-.316,4.108.632.948-.316.79L1075.98,0l34.128-.158-.158-32.864-.474-.158-.158-14.062.79-.632V-48.98l-.79-.948v-5.056Zm-79.632-4.424-.316-1.264,2.844-2.054.316.632Zm18.17,10.428h-1.9l-.474-1.738,2.054.474.158-1.106,2.844.158Zm27.966,4.266h-1.264l.79-2.528,1.422-1.106Zm19.908,16.116-.632-.79.632-1.106.948,1.106ZM1082.3-98.118h-1.106l-.316.948.948.316Zm-1.738,6.162,1.264-1.264,1.422-.474.316-1.264-1.738.158-.316-.79-.316-.632-.79.474.158,1.422.158.948-.79.79Z"
            transform="translate(410.918 621.924)" fill="#e2e8f0c1" />
    </g>
</svg>