<svg xmlns="http://www.w3.org/2000/svg" xmlns:xlink="http://www.w3.org/1999/xlink" width="41.45" height="41.45" viewBox="0 0 41.45 41.45"><defs><linearGradient id="a" x1="0.114" y1="0.051" x2="1.181" y2="1.06" gradientUnits="objectBoundingBox"><stop offset="0" stop-color="#514eff"/><stop offset="1" stop-color="#ff0cd6"/></linearGradient></defs><path d="M24,44.7a20.2,20.2,0,0,1-8.075-1.625,20.653,20.653,0,0,1-6.575-4.45,21.164,21.164,0,0,1-4.425-6.6A20.2,20.2,0,0,1,3.3,23.95a20.08,20.08,0,0,1,1.625-8.025A20.861,20.861,0,0,1,9.35,9.35,21.212,21.212,0,0,1,15.925,4.9,19.94,19.94,0,0,1,24,3.25,19.94,19.94,0,0,1,32.075,4.9,20.975,20.975,0,0,1,43.1,15.925a19.818,19.818,0,0,1,1.65,8.025,20.655,20.655,0,0,1-6.075,14.7,21.164,21.164,0,0,1-6.6,4.425A20.2,20.2,0,0,1,24,44.7Zm0-3.95a16.161,16.161,0,0,0,11.875-4.875A16.22,16.22,0,0,0,40.75,23.95a16.389,16.389,0,0,0-.95-5.525A16.133,16.133,0,0,0,37.1,13.6L13.6,37.05a14.643,14.643,0,0,0,4.85,2.775A17.009,17.009,0,0,0,24,40.75Zm-13.05-6.4L34.35,10.9A15.86,15.86,0,0,0,29.5,8.175,16.57,16.57,0,0,0,24,7.25,16.2,16.2,0,0,0,12.125,12.1,16.078,16.078,0,0,0,7.25,23.95a15.654,15.654,0,0,0,1,5.525A18.535,18.535,0,0,0,10.95,34.35Z" transform="translate(-3.3 -3.25)" fill="url(#a)"/></svg>