<svg xmlns="http://www.w3.org/2000/svg" xmlns:xlink="http://www.w3.org/1999/xlink" width="45.65" height="34.75" viewBox="0 0 45.65 34.75"><defs><linearGradient id="a" x1="0.185" x2="1.18" y2="1.226" gradientUnits="objectBoundingBox"><stop offset="0" stop-color="#514eff"/><stop offset="1" stop-color="#ff0cd6"/></linearGradient></defs><path d="M1.2,41.4V32.9a3.852,3.852,0,0,1,1.175-2.825A3.8,3.8,0,0,1,5.15,28.9h7.2a3.335,3.335,0,0,1,1.6.375,3.5,3.5,0,0,1,1.2,1.075A10.376,10.376,0,0,0,19,33.7a10.972,10.972,0,0,0,13.9-3.35,3.086,3.086,0,0,1,1.15-1.075A3.445,3.445,0,0,1,35.7,28.9h7.15a4.012,4.012,0,0,1,4,4v8.5H32.9V35.25a14.634,14.634,0,0,1-4.125,2.35A13.531,13.531,0,0,1,24,38.45a13.754,13.754,0,0,1-4.725-.825A13.585,13.585,0,0,1,15.15,35.25V41.4ZM24,31.5a6.922,6.922,0,0,1-3.175-.775A6.5,6.5,0,0,1,18.35,28.55a6.361,6.361,0,0,0-2.175-2A8.688,8.688,0,0,0,13.4,25.6a11.926,11.926,0,0,1,4.775-2.3A22.272,22.272,0,0,1,24,22.45a22.432,22.432,0,0,1,5.875.85A12.4,12.4,0,0,1,34.7,25.6a8.7,8.7,0,0,0-2.825.95,6.361,6.361,0,0,0-2.175,2,6.5,6.5,0,0,1-2.475,2.175A7.023,7.023,0,0,1,24,31.5ZM8,24.6a5.448,5.448,0,0,1-4.025-1.7A5.571,5.571,0,0,1,2.3,18.85a5.488,5.488,0,0,1,1.675-4.025A5.488,5.488,0,0,1,8,13.15a5.547,5.547,0,0,1,4.075,1.675A5.488,5.488,0,0,1,13.75,18.85a5.571,5.571,0,0,1-1.675,4.05A5.506,5.506,0,0,1,8,24.6Zm32,0a5.448,5.448,0,0,1-4.025-1.7A5.571,5.571,0,0,1,34.3,18.85a5.719,5.719,0,0,1,5.7-5.7,5.547,5.547,0,0,1,4.075,1.675A5.488,5.488,0,0,1,45.75,18.85a5.571,5.571,0,0,1-1.675,4.05A5.506,5.506,0,0,1,40,24.6ZM24,18.1a5.448,5.448,0,0,1-4.025-1.7A5.571,5.571,0,0,1,18.3,12.35a5.488,5.488,0,0,1,1.675-4.025A5.488,5.488,0,0,1,24,6.65a5.547,5.547,0,0,1,4.075,1.675A5.488,5.488,0,0,1,29.75,12.35a5.571,5.571,0,0,1-1.675,4.05A5.506,5.506,0,0,1,24,18.1Z" transform="translate(-1.2 -6.65)" fill="url(#a)"/></svg>